<?xml version="1.0"?>
<svg xmlns="http://www.w3.org/2000/svg" height="512px" viewBox="0 -52 496 496" width="512px"><path d="m492.441406 1.34375c-2.226562-1.484375-5.050781-1.757812-7.519531-.726562-75.046875 31.359374-155.585937 47.464843-236.921875 47.382812-81.335938.082031-161.871094-16.027344-236.921875-47.382812-2.46875-1.03125-5.289063-.757813-7.515625.726562s-3.5625 3.980469-3.5625 6.65625v376c0 2.675781 1.335938 5.175781 3.5625 6.660156 2.226562 1.480469 5.046875 1.753906 7.515625.726563 151.628906-63.179688 322.214844-63.179688 473.84375 0 2.46875 1.027343 5.289063.753906 7.515625-.726563 2.226562-1.484375 3.5625-3.984375 3.5625-6.660156v-376c0-2.671875-1.335938-5.171875-3.558594-6.65625zm-244.441406 62.65625c79.425781.085938 158.148438-14.882812 232-44.117188v99.199219l-56.238281 78.773438-26.960938-20.253907c-2.96875-2.222656-7.074219-2.117187-9.921875.253907-30.765625 25.601562-51.949218 44-66.550781 57.335937l-81.601563-127.503906c-1.414062-2.203125-3.816406-3.578125-6.433593-3.671875-2.621094-.097656-5.117188 1.089844-6.691407 3.183594l-83.953124 111.914062-72.6875-57.390625c-1.785157-1.410156-4.085938-1.996094-6.328126-1.605468-2.242187.390624-4.210937 1.714843-5.417968 3.644531l-41.214844 65.941406v-209.820313c73.851562 29.234376 152.574219 44.203126 232 44.117188zm0 264c-79.425781-.085938-158.148438 14.886719-232 44.121094v-112.222656l50.046875-80.082032 144.992187 114.464844c3.46875 2.738281 8.5 2.148438 11.242188-1.320312 2.738281-3.46875 2.148438-8.5-1.320312-11.238282l-66.753907-52.699218 77.273438-103 76.960937 120.273437c-20.441406 19.609375-20.441406 23.304687-20.441406 25.703125-.003906 4.007812 2.953125 7.398438 6.921875 7.9375s7.726563-1.941406 8.789063-5.800781c5.175781-8 47.824218-45.824219 88.5625-79.9375l58.925781 44.203125c3.535156 2.648437 8.550781 1.933594 11.199219-1.601563 2.652343-3.535156 1.9375-8.550781-1.597657-11.199219l-24.242187-18.175781 43.441406-60.847656v225.542969c-73.851562-29.234375-152.574219-44.207032-232-44.121094zm0 0" fill="#1f1f1f"/><path d="m456 336h16v16h-16zm0 0" fill="#1f1f1f"/><path d="m432 336h16v16h-16zm0 0" fill="#1f1f1f"/><path d="m456 312h16v16h-16zm0 0" fill="#1f1f1f"/><path d="m384 144c17.671875 0 32-14.324219 32-32 0-17.671875-14.328125-32-32-32s-32 14.328125-32 32c0 17.675781 14.328125 32 32 32zm0-48c8.835938 0 16 7.164062 16 16s-7.164062 16-16 16-16-7.164062-16-16 7.164062-16 16-16zm0 0" fill="#1f1f1f"/><path d="m376 56h16v16h-16zm0 0" fill="#1f1f1f"/><path d="m406.625 78.054688 11.316406-11.316407 11.3125 11.316407-11.3125 11.3125zm0 0" fill="#1f1f1f"/><path d="m424 104h16v16h-16zm0 0" fill="#1f1f1f"/><path d="m406.628906 145.945312 11.316406-11.3125 11.3125 11.3125-11.3125 11.3125zm0 0" fill="#1f1f1f"/><path d="m376 152h16v16h-16zm0 0" fill="#1f1f1f"/><path d="m338.746094 145.949219 11.3125-11.3125 11.316406 11.3125-11.316406 11.3125zm0 0" fill="#1f1f1f"/><path d="m328 104h16v16h-16zm0 0" fill="#1f1f1f"/><path d="m338.742188 78.058594 11.3125-11.316406 11.316406 11.316406-11.316406 11.3125zm0 0" fill="#1f1f1f"/></svg>
