<?xml version="1.0"?>
<svg xmlns="http://www.w3.org/2000/svg" height="512px" viewBox="0 0 512 512.0009" width="512px"><path d="m466.996094 30h-195.996094v-15c0-8.285156-6.71875-15-15-15-8.285156 0-15 6.714844-15 15v15h-196c-24.8125 0-45 20.1875-45 45 0 19.554688 12.542969 36.226562 30 42.417969v258.578125c0 8.285156 6.714844 15 15 15h196v65.1875l-79.746094 26.582031c-7.859375 2.621094-12.105468 11.117187-9.484375 18.972656 2.617188 7.859375 11.109375 12.109375 18.972657 9.488281l85.253906-28.417968 85.257812 28.417968c7.84375 2.617188 16.347656-1.613281 18.972656-9.488281 2.621094-7.855469-1.625-16.351562-9.484374-18.972656l-79.742188-26.582031v-65.1875h195.996094c8.285156 0 15-6.714844 15-15v-258.578125c17.460937-6.191407 30-22.863281 30-42.417969 0-24.8125-20.183594-45-45-45zm-406.996094 330.996094v-240.996094h391.996094v240.996094zm406.996094-270.996094h-421.996094c-8.269531 0-15-6.730469-15-15 0-8.273438 6.730469-15 15-15h421.996094c8.273437 0 15 6.726562 15 15 0 8.269531-6.726563 15-15 15zm0 0" fill="#1f1f1f"/><path d="m315.996094 300.996094h-14.996094v-105.996094c0-8.285156-6.71875-15-15-15-8.285156 0-15 6.714844-15 15v105.996094h-30v-75.996094c0-8.285156-6.71875-15-15-15-8.285156 0-15 6.714844-15 15v75.996094h-30v-46c0-8.28125-6.71875-14.996094-15-14.996094-8.285156 0-15 6.714844-15 14.996094v46h-30v-135.996094c0-8.285156-6.714844-15-15-15s-15 6.714844-15 15v150.996094c0 8.285156 6.714844 15 15 15h209.996094c8.285156 0 15-6.714844 15-15 0-8.28125-6.714844-15-15-15zm0 0" fill="#1f1f1f"/><path d="m406.996094 150h-61c-8.28125 0-15 6.714844-15 15 0 8.28125 6.71875 15 15 15h61c8.285156 0 15-6.71875 15-15 0-8.285156-6.714844-15-15-15zm0 0" fill="#1f1f1f"/><path d="m406.996094 210h-61c-8.28125 0-15 6.714844-15 15 0 8.28125 6.71875 15 15 15h61c8.285156 0 15-6.71875 15-15 0-8.285156-6.714844-15-15-15zm0 0" fill="#1f1f1f"/></svg>
