<?xml version="1.0"?>
<svg xmlns="http://www.w3.org/2000/svg" height="512px" viewBox="0 -24 512.00101 512" width="512px"><path d="m416.277344 352.613281h16.027344v15.136719h-16.027344zm0 0" fill="#1f1f1f"/><path d="m231.957031 336.585938h48.085938v15.136718h-48.085938zm0 0" fill="#1f1f1f"/><path d="m159.386719 111.75h-15.136719v-47.636719h31.609375v15.132813h-16.472656zm0 0" fill="#1f1f1f"/><path d="m223.945312 64.113281h16.027344v15.132813h-16.027344zm0 0" fill="#1f1f1f"/><path d="m512 240.417969h-112.195312v-32.945313h32.054687v-207.472656h-351.71875v207.46875h32.054687v32.949219h-112.195312v63.21875h16.027344v160.277343h45.535156l16.027344-64.109374h74.230468v-15.136719h-120.65625v-81.03125h264.90625v-15.136719h-280.933593v-32.945312h481.726562v32.945312h-176.753906v15.136719h160.726563v81.03125h-304.976563v15.136719h258.550781l16.03125 64.109374h45.53125v-160.277343h16.027344zm-462.257812 208.363281h-18.578126v-48.976562h30.824219zm94.507812-208.363281h-16.917969v-32.945313h16.917969zm15.136719 0v-32.945313h193.226562v32.945313zm225.28125 0h-16.917969v-32.945313h16.917969zm-289.394531-48.082031v-177.199219h321.453124v177.199219zm385.5625 256.445312h-18.578126l-12.246093-48.976562h30.824219zm0 0" fill="#1f1f1f"/><path d="m63.21875 352.167969v-16.476563h16.472656v-15.132812h-31.609375v31.609375zm0 0" fill="#1f1f1f"/><path d="m448.335938 352.613281h16.027343v15.136719h-16.027343zm0 0" fill="#1f1f1f"/><path d="m384.222656 352.613281h16.027344v15.136719h-16.027344zm0 0" fill="#1f1f1f"/><path d="m399.804688 32.054688h-103.734376v15.136718h88.597657v113.085938h-257.335938v-113.085938h144.695313v-15.136718h-159.832032v143.359374h287.609376zm0 0" fill="#1f1f1f"/><path d="m191.890625 64.113281h16.027344v15.132813h-16.027344zm0 0" fill="#1f1f1f"/><path d="m352.167969 128.222656h16.027343v15.136719h-16.027343zm0 0" fill="#1f1f1f"/><path d="m352.167969 96.167969h16.027343v15.136719h-16.027343zm0 0" fill="#1f1f1f"/><path d="m320.109375 128.222656h16.03125v15.136719h-16.03125zm0 0" fill="#1f1f1f"/></svg>
